# xmcd
#
# Track frame offsets:
#	150
#	14336
#	27620
#	40981
#	56278
#	68525
#	83501
#	96885
#	111246
#	123156
#	138291
#	152789
#	166317
#	183149
#	199826
#	214233
#	226458
#	239812
#	253107
#	269021
#	284148
#	299295
#	311282
#	325587
#
# Disc length: 4533 seconds
#
# Revision: 0
# Processed by: cddbd v1.5.2PL0 Copyright (c) Steve Scherf et al.
# Submitted via: EasyCDDAExtractor 16.0.6.1
#
DISCID=5e11b318
DTITLE=Συλλογικός δίσκος - Τα λαϊκά 2-Νοσταλγίες
DYEAR=1995
DGENRE=Λαϊκή
TTITLE0=Ιωαννίδης Πάνος - Αντίο γλυκειά μου αγάπη [Νοσταλγίες, Π. Ιωαννίδη-Ε. 
TTITLE0=Φυλακτού]
TTITLE1=Ιωάννου Α. - Όση γλύκα έχουν τα χείλη σου [Νοσταλγίες, Α. Καλδάρα]
TTITLE2=Ιωαννίδης Πάνος - Μόνος μου περιπλανιέμαι [Νοσταλγίες, Σ. Κάξου-Χ. Βου
TTITLE2=λγαρίδη]
TTITLE3=Περπινιάδης Βαγγέλης - Μη μ' αφήνεις μόνο μου [Νοσταλγίες, Β. Περπινιά
TTITLE3=δη]
TTITLE4=Ιωαννίδης Πάνος - Είσαι το άστρο της αυγής [Νοσταλγίες, Σ. Κάξου]
TTITLE5=Θεσσαλός Βασίλης - Είν' η ζωή μου άδεια [Νοσταλγίες, Γ. Καραμπεσίνη]
TTITLE6=Ιωαννίδης Πάνος - Τώρα είμαι ένας άνδρας ξοφλημένος [Νοσταλγίες, Χ. Νι
TTITLE6=κολόπουλου-Πυθαγόρα]
TTITLE7=Ιωάννου Α. - Τα δυό σου μάτια με ξεκουράζουν [Νοσταλγίες, Α. Καλδάρα]
TTITLE8=Ιωαννίδης Πάνος - Βάλε παιδί μου βάλε [Νοσταλγίες, Π. Ιωαννίδη]
TTITLE9=Περπινιάδης Βαγγέλης - Μ' άναψες φωτιά [Νοσταλγίες, Β. Περπινιάδη]
TTITLE10=Θεσσαλός Βασίλης - Μεγάλη θλίψη [Νοσταλγίες, Μ. Μπαλτόγλου]
TTITLE11=Ανδρούλα - Όταν λέω πως θα φύγω [Νοσταλγίες, Γ. Μάμα-Σ. Χαραλάμπους]
TTITLE12=Γαβαλάς Πάνος - Φύγε κι άσε με [1995,Τα λαϊκά 2, ΠΓαβαλά-Κ. Βίρβου-Α.
TTITLE12=Κουλούρη]
TTITLE13=Λίντα Μαίρη - Περασμένες μου αγάπες [1995,Τα λαϊκά 2, Μ. Χιώτη-Ε. Παπ
TTITLE13=αγιαννοπούλου]
TTITLE14=Μπιθικώτσης Γρηγόρης - Όμορφη Πειραιώτισσα [1995,Τα λαϊκά 2, Κ. Καπλά
TTITLE14=νη-Δ. Γκόγκου Μπαγιαντέρα]
TTITLE15=Λύδια Γιώτα - Συ μου χάραξες πορεία [1995,Τα λαϊκά 2, Α. Καλδάρα]
TTITLE16=Μενιδιάτης Μιχάλης - Ξημέρωσε καλή μου [1995,Τα λαϊκά 2, Ά. Πάνου-Ν. 
TTITLE16=Καρανικόλα]
TTITLE17=Πάνου Πόλυ - Τα λιμάνια [1995,Τα λαϊκά 2, Β. Τσιτσάνη]
TTITLE18=Μυτιληναίος Λευτέρης - Αμφιβολίες [1995,Τα λαϊκά 2, Γ. Μπιθικώτση]
TTITLE19=Γκρέϋ Καίτη - Άναψε το τσιγάρο [1995,Τα λαϊκά 2, Γ. Κλουβάτου-Χ. Βασι
TTITLE19=λειάδη]
TTITLE20=Λίντα Μαίρη - Αφού το θες [1995,Τα λαϊκά 2, Μ. Χιώτη]
TTITLE21=Περπινιάδης Βαγγέλης - Γιατί γλυκειά μου κλαις [1995,Τα λαϊκά 2, Α. Κ
TTITLE21=αλδάρα]
TTITLE22=Λύδια Γιώτα - Νύχτωσε χωρίς φεγγάρι [1995,Τα λαϊκά 2, Α. Καλδάρα]
TTITLE23=Καζαντζίδης Στέλιος - Θεσσαλονίκη μου [1995,Τα λαϊκά 2, Μ. Χιώτη-Χ. Κ
TTITLE23=ολοκοτρώνη]
EXTD=
EXTT0=
EXTT1=
EXTT2=
EXTT3=
EXTT4=
EXTT5=
EXTT6=
EXTT7=
EXTT8=
EXTT9=
EXTT10=
EXTT11=
EXTT12=
EXTT13=
EXTT14=
EXTT15=
EXTT16=
EXTT17=
EXTT18=
EXTT19=
EXTT20=
EXTT21=
EXTT22=
EXTT23=
PLAYORDER=
